<svg height="597.33331pt" viewBox="-18 -18 597.33331 597.33331" width="597.33331pt" xmlns="http://www.w3.org/2000/svg"><path d="m280 0c-154.640625 0-280 125.359375-280 280s125.359375 280 280 280 280-125.359375 280-280c-.175781-154.566406-125.433594-279.824219-280-280zm157.070312 347.070312c-3.90625 3.902344-10.234374 3.902344-14.140624 0l-142.929688-142.929687-142.929688 142.929687c-3.925781 3.789063-10.160156 3.734376-14.019531-.121093-3.855469-3.859375-3.910156-10.09375-.121093-14.019531l150-150c3.90625-3.902344 10.234374-3.902344 14.140624 0l150 150c3.902344 3.90625 3.902344 10.234374 0 14.140624zm0 0"/></svg>